<?xml version="1.0" encoding="iso-8859-1"?>
<!-- Generator: Adobe Illustrator 16.0.0, SVG Export Plug-In . SVG Version: 6.00 Build 0)  -->
<!DOCTYPE svg PUBLIC "-//W3C//DTD SVG 1.1//EN" "http://www.w3.org/Graphics/SVG/1.1/DTD/svg11.dtd">
<svg version="1.1" id="Layer_1" xmlns="http://www.w3.org/2000/svg" xmlns:xlink="http://www.w3.org/1999/xlink" x="0px" y="0px"
	 width="32px" height="27.969px" viewBox="0 0 32 27.969" style="enable-background:new 0 0 32 27.969;" xml:space="preserve">
<g>
	<rect x="16.92" y="5.898" width="4.154" height="1.447"/>
	<rect x="16.92" y="9.57" width="4.154" height="1.447"/>
	<path d="M22.225,25.075V12.464H7.61l1.496,12.611H22.225z M16.92,14.319h4.154v1.446H16.92V14.319z M16.92,17.991h4.154v1.446
		H16.92V17.991z"/>
	<path d="M31.826,3.303c-0.517-2.003-1.656-2.786-2.52-3.09c-1.375-0.484-2.877-0.061-4.004,0.456H0.093L0.01,1.692
		c-0.016,0.19-0.315,4.532,3.9,6.954l2.264,19.322h19.313V14.197C27.137,12.982,33.088,8.197,31.826,3.303z M23.262,25.743H8.155
		L5.983,7.206L5.438,6.939C3.185,5.835,2.505,4.027,2.305,2.895h20.957V25.743z M25.487,10.729V3.604
		c0.784-0.499,2.147-1.147,2.933-0.872c0.365,0.13,0.641,0.547,0.819,1.239C29.806,6.166,27.461,8.93,25.487,10.729z"/>
</g>
<g>
</g>
<g>
</g>
<g>
</g>
<g>
</g>
<g>
</g>
<g>
</g>
<g>
</g>
<g>
</g>
<g>
</g>
<g>
</g>
<g>
</g>
<g>
</g>
<g>
</g>
<g>
</g>
<g>
</g>
</svg>
