<?xml version="1.0" encoding="iso-8859-1"?>
<!-- Generator: Adobe Illustrator 16.0.0, SVG Export Plug-In . SVG Version: 6.00 Build 0)  -->
<!DOCTYPE svg PUBLIC "-//W3C//DTD SVG 1.1//EN" "http://www.w3.org/Graphics/SVG/1.1/DTD/svg11.dtd">
<svg version="1.1" id="Layer_1" xmlns="http://www.w3.org/2000/svg" xmlns:xlink="http://www.w3.org/1999/xlink" x="0px" y="0px"
	 width="32px" height="28.513px" viewBox="0 0 32 28.513" style="enable-background:new 0 0 32 28.513;" xml:space="preserve">
<path d="M22.673,1.313c-0.845,1.057-8.679,10.846-9.277,11.593l0,0l-0.711,0.711c0,0-0.53,1.917-4.396,4.647
	c-0.667,0.667-7.865,7.864-7.865,7.864l0.001,0.002c-0.007,0.007-0.014,0.011-0.021,0.018c-0.541,0.541-0.541,1.418,0,1.96
	c0.54,0.54,1.418,0.54,1.959-0.001c0.006-0.006,0.01-0.014,0.017-0.021l0.002,0.002c0,0,7.308-7.308,7.884-7.884
	c1.973-3.476,4.558-4.445,4.558-4.445l0.613-0.613l3.764,3.959L32,6.309c0,0-5.526-5.18-6.116-5.819
	C24.85-0.543,23.552,0.215,22.673,1.313z M23.94,1.641c0.295-0.295,0.775-0.295,1.07,0c0.296,0.296,0.296,0.775,0,1.071
	c-0.295,0.295-0.775,0.295-1.07,0S23.645,1.937,23.94,1.641z"/>
<g>
</g>
<g>
</g>
<g>
</g>
<g>
</g>
<g>
</g>
<g>
</g>
<g>
</g>
<g>
</g>
<g>
</g>
<g>
</g>
<g>
</g>
<g>
</g>
<g>
</g>
<g>
</g>
<g>
</g>
</svg>
