<?xml version="1.0" encoding="iso-8859-1"?>
<!-- Generator: Adobe Illustrator 16.0.0, SVG Export Plug-In . SVG Version: 6.00 Build 0)  -->
<!DOCTYPE svg PUBLIC "-//W3C//DTD SVG 1.1//EN" "http://www.w3.org/Graphics/SVG/1.1/DTD/svg11.dtd">
<svg version="1.1" id="Layer_1" xmlns="http://www.w3.org/2000/svg" xmlns:xlink="http://www.w3.org/1999/xlink" x="0px" y="0px"
	 width="18.678px" height="32px" viewBox="0 0 18.678 32" style="enable-background:new 0 0 18.678 32;" xml:space="preserve">
<g>
	<path d="M17.894,12.452h-1.969v13.053c0,0.376-0.305,0.682-0.681,0.682c-0.377,0-0.682-0.306-0.682-0.682V12.452H0.784
		C0.352,12.452,0,12.803,0,13.235v17.981C0,31.649,0.352,32,0.784,32h17.109c0.433,0,0.784-0.351,0.784-0.783V13.235
		C18.678,12.803,18.326,12.452,17.894,12.452z"/>
	<path d="M17.894,0H0.784C0.352,0,0,0.352,0,0.784V11.07c0,0.433,0.352,0.783,0.784,0.783h13.778V3.701
		c0-0.376,0.305-0.682,0.682-0.682c0.376,0,0.681,0.306,0.681,0.682v8.152h1.969c0.433,0,0.784-0.351,0.784-0.783V0.784
		C18.678,0.352,18.326,0,17.894,0z"/>
</g>
<g>
</g>
<g>
</g>
<g>
</g>
<g>
</g>
<g>
</g>
<g>
</g>
<g>
</g>
<g>
</g>
<g>
</g>
<g>
</g>
<g>
</g>
<g>
</g>
<g>
</g>
<g>
</g>
<g>
</g>
</svg>
