<?xml version="1.0" encoding="iso-8859-1"?>
<!-- Generator: Adobe Illustrator 16.0.0, SVG Export Plug-In . SVG Version: 6.00 Build 0)  -->
<!DOCTYPE svg PUBLIC "-//W3C//DTD SVG 1.1//EN" "http://www.w3.org/Graphics/SVG/1.1/DTD/svg11.dtd">
<svg version="1.1" id="Layer_1" xmlns="http://www.w3.org/2000/svg" xmlns:xlink="http://www.w3.org/1999/xlink" x="0px" y="0px"
	 width="32px" height="22.587px" viewBox="0 0 32 22.587" style="enable-background:new 0 0 32 22.587;" xml:space="preserve">
<g>
	<path d="M4.936,18.931c0.027-0.438,0.055-0.878,0.111-1.32c0.106-1.053,0.334-2.105,0.566-3.134
		c0.145-0.513,0.299-1.018,0.458-1.513c0.207-0.482,0.409-0.961,0.609-1.43c0.457-0.916,0.966-1.771,1.574-2.487
		C8.4,8.863,8.542,8.683,8.682,8.504c0.161-0.159,0.32-0.315,0.477-0.47c0.325-0.295,0.607-0.611,0.934-0.848
		c0.646-0.48,1.221-0.936,1.805-1.219c0.563-0.313,1.047-0.587,1.482-0.741c0.851-0.343,1.335-0.516,1.335-0.516
		s-0.413,0.327-1.135,0.858c-0.374,0.245-0.766,0.629-1.237,1.021c-0.488,0.375-0.934,0.911-1.459,1.428
		c-0.265,0.262-0.47,0.594-0.719,0.898c-0.122,0.154-0.246,0.312-0.372,0.471c-0.106,0.174-0.213,0.35-0.323,0.528
		c-0.465,0.69-0.813,1.501-1.176,2.325c-0.147,0.429-0.3,0.865-0.453,1.306c-0.105,0.46-0.222,0.923-0.35,1.384
		c-0.19,0.948-0.378,1.914-0.457,2.91c-0.057,0.36-0.086,0.726-0.116,1.091c7.901,0.001,14.017,0.005,22.575,0.005
		c0.029-0.375,0.045-0.754,0.045-1.137c0-7.207-5.254-13.142-12.009-13.928c0.435-0.409,0.709-0.988,0.709-1.633
		C18.237,1.002,17.236,0,16,0c-1.237,0-2.24,1.002-2.24,2.239c0,0.645,0.274,1.224,0.711,1.633C7.714,4.658,2.463,10.593,2.463,17.8
		c0,0.381,0.014,0.758,0.042,1.131C3.34,18.931,4.146,18.931,4.936,18.931z"/>
	<rect y="19.763" width="32" height="2.824"/>
</g>
<g>
</g>
<g>
</g>
<g>
</g>
<g>
</g>
<g>
</g>
<g>
</g>
<g>
</g>
<g>
</g>
<g>
</g>
<g>
</g>
<g>
</g>
<g>
</g>
<g>
</g>
<g>
</g>
<g>
</g>
</svg>
