<?xml version="1.0" encoding="utf-8"?>
<!-- Generator: Adobe Illustrator 19.1.0, SVG Export Plug-In . SVG Version: 6.00 Build 0)  -->
<!DOCTYPE svg PUBLIC "-//W3C//DTD SVG 1.1//EN" "http://www.w3.org/Graphics/SVG/1.1/DTD/svg11.dtd">
<svg version="1.1"
	 id="svg2" xmlns:svg="http://www.w3.org/2000/svg" xmlns:ns1="http://sozi.baierouge.fr" xmlns:inkscape="http://www.inkscape.org/namespaces/inkscape" xmlns:cc="http://creativecommons.org/ns#" xmlns:rdf="http://www.w3.org/1999/02/22-rdf-syntax-ns#" xmlns:sodipodi="http://sodipodi.sourceforge.net/DTD/sodipodi-0.dtd" xmlns:dc="http://purl.org/dc/elements/1.1/" inkscape:version="0.48.2 r9819" sodipodi:version="0.32" sodipodi:docname="New document 1"
	 xmlns="http://www.w3.org/2000/svg" xmlns:xlink="http://www.w3.org/1999/xlink" x="0px" y="0px"
	 viewBox="-809.6 412.4 647.9 629.9" style="enable-background:new -809.6 412.4 647.9 629.9;" xml:space="preserve">
<sodipodi:namedview  id="base" inkscape:cx="463.89554" borderopacity="1.0" inkscape:zoom="0.42037693" showgrid="false" inkscape:cy="329.84615" pagecolor="#ffffff" bordercolor="#666666" units="in" fit-margin-top="0.25" fit-margin-left="0.25" inkscape:window-height="842" inkscape:pageshadow="2" inkscape:pageopacity="0.0" inkscape:window-width="1440" fit-margin-bottom="0.25" fit-margin-right="0.25" inkscape:current-layer="svg2" inkscape:window-x="-4" inkscape:window-maximized="1" inkscape:document-units="in" inkscape:window-y="-4">
	
		<inkscape:grid  type="axonomgrid" id="grid3477" units="in" spacingy="0.25in" enabled="false" empspacing="4" visible="true" snapvisiblegridlinesonly="true">
		</inkscape:grid>
	
		<inkscape:grid  type="axonomgrid" id="grid3479" units="in" spacingy="0.25in" enabled="false" empspacing="5" gridanglez="30" visible="true" gridanglex="60" snapvisiblegridlinesonly="true">
		</inkscape:grid>
	
		<inkscape:grid  type="xygrid" id="grid3481" spacingy="0.25px" enabled="false" empspacing="4" spacingx="0.25px" visible="true" dotted="false" snapvisiblegridlinesonly="true">
		</inkscape:grid>
</sodipodi:namedview>
<g>
	<path d="M-266.9,605.3c-6.9,2.4-16,11.4-20.8,16.5c3.7-16.3,6.2-30.7,7.6-39.7h14.6v-25H-706v25h14.7c1.4,8.9,3.9,23.4,7.6,39.7
		c-4.8-5.1-13.9-14-20.8-16.5c-9.8-3.5-42.4,0-42.4,0v13.2c0,0,32.1-1.1,39,2.9s14.4,37.9,20.1,37.9c3,0,9.1,0,14.3,0
		c6.2,19.2,14,37.4,23.7,49.5c25.7,32.1,62.9,58.7,73.7,66.1v11.6h181v-11.6c10.8-7.4,48-33.9,73.7-66.1
		c9.7-12.1,17.5-30.3,23.7-49.5c5.2,0,11.3,0,14.3,0c5.7,0,13.2-33.9,20.1-37.9c6.9-4,39-2.9,39-2.9v-13.2
		C-224.5,605.3-257.1,601.8-266.9,605.3z M-440.6,664c5.9,0,10.7,4.8,10.7,10.7s-4.8,10.7-10.7,10.7c-5.9,0-10.7-4.8-10.7-10.7
		S-446.5,664-440.6,664z M-461.9,688.6c5.9,0,10.7,4.8,10.7,10.7S-456,710-461.9,710c-5.9,0-10.7-4.8-10.7-10.7
		C-472.6,693.4-467.8,688.6-461.9,688.6z M-485.5,664.7c5.9,0,10.7,4.8,10.7,10.7s-4.8,10.7-10.7,10.7c-5.9,0-10.7-4.8-10.7-10.7
		S-491.4,664.7-485.5,664.7z M-499.5,700.9c0,5.9-4.8,10.7-10.7,10.7c-5.9,0-10.7-4.8-10.7-10.7s4.8-10.7,10.7-10.7
		C-504.3,690.2-499.5,695-499.5,700.9z M-525.5,665c5.9,0,10.7,4.8,10.7,10.7s-4.8,10.7-10.7,10.7s-10.7-4.8-10.7-10.7
		S-531.4,665-525.5,665z M-627.2,706.2c-5.9,0-10.7-4.8-10.7-10.7s4.8-10.7,10.7-10.7s10.7,4.8,10.7,10.7
		C-616.5,701.4-621.3,706.2-627.2,706.2z M-605.6,731.4c-5.9,0-10.7-4.8-10.7-10.7s4.8-10.7,10.7-10.7s10.7,4.8,10.7,10.7
		S-599.7,731.4-605.6,731.4z M-597.6,702c-5.9,0-10.7-4.8-10.7-10.7s4.8-10.7,10.7-10.7s10.7,4.8,10.7,10.7S-591.7,702-597.6,702z
		 M-563.9,670.1c5.9,0,10.7,4.8,10.7,10.7s-4.8,10.7-10.7,10.7s-10.7-4.8-10.7-10.7S-569.8,670.1-563.9,670.1z M-569,748.1
		c-5.9,0-10.7-4.8-10.7-10.7s4.8-10.7,10.7-10.7s10.7,4.8,10.7,10.7S-563.1,748.1-569,748.1z M-564.5,719.5
		c-5.9,0-10.7-4.8-10.7-10.7s4.8-10.7,10.7-10.7s10.7,4.8,10.7,10.7S-558.6,719.5-564.5,719.5z M-540.6,763.6
		c-5.9,0-10.7-4.8-10.7-10.7s4.8-10.7,10.7-10.7s10.7,4.8,10.7,10.7S-534.7,763.6-540.6,763.6z M-536.4,731.6
		c-5.9,0-10.7-4.8-10.7-10.7s4.8-10.7,10.7-10.7s10.7,4.8,10.7,10.7S-530.5,731.6-536.4,731.6z M-507,762.6
		c-5.9,0-10.7-4.8-10.7-10.7s4.8-10.7,10.7-10.7c5.9,0,10.7,4.8,10.7,10.7S-501.1,762.6-507,762.6z M-485,734.6
		c-5.9,0-10.7-4.8-10.7-10.7s4.8-10.7,10.7-10.7c5.9,0,10.7,4.8,10.7,10.7C-474.3,729.8-479.1,734.6-485,734.6z M-463.3,762.6
		c-5.9,0-10.7-4.8-10.7-10.7s4.8-10.7,10.7-10.7c5.9,0,10.7,4.8,10.7,10.7S-457.4,762.6-463.3,762.6z M-453.9,725
		c0-5.9,4.8-10.7,10.7-10.7s10.7,4.8,10.7,10.7s-4.8,10.7-10.7,10.7S-453.9,730.9-453.9,725z M-429.7,763.6
		c-5.9,0-10.7-4.8-10.7-10.7s4.8-10.7,10.7-10.7s10.7,4.8,10.7,10.7S-423.8,763.6-429.7,763.6z M-426.4,705
		c0-5.9,4.8-10.7,10.7-10.7s10.7,4.8,10.7,10.7s-4.8,10.7-10.7,10.7S-426.4,710.9-426.4,705z M-401.3,748.1
		c-5.9,0-10.7-4.8-10.7-10.7s4.8-10.7,10.7-10.7c5.9,0,10.7,4.8,10.7,10.7S-395.4,748.1-401.3,748.1z M-400,689.8
		c-5.9,0-10.7-4.8-10.7-10.7s4.8-10.7,10.7-10.7c5.9,0,10.7,4.8,10.7,10.7S-394.1,689.8-400,689.8z M-370.7,730.4
		c-5.9,0-10.7-4.8-10.7-10.7s4.8-10.7,10.7-10.7c5.9,0,10.7,4.8,10.7,10.7S-364.8,730.4-370.7,730.4z M-374.2,702.2
		c-5.9,0-10.7-4.8-10.7-10.7s4.8-10.7,10.7-10.7s10.7,4.8,10.7,10.7C-363.5,697.4-368.3,702.2-374.2,702.2z M-341.2,708.3
		c-5.9,0-10.7-4.8-10.7-10.7s4.8-10.7,10.7-10.7s10.7,4.8,10.7,10.7S-335.3,708.3-341.2,708.3z"/>
	<path d="M-529.6,817.1c-1.6-2.5-8.4-11.1-10.9-19.6c-0.4-1.4-1.7-2-2.7-2s-2.3,0.7-2.7,2c-2.6,8.5-9.3,17.1-10.9,19.6
		c-1.6,2.5-2.6,5.5-2.6,8.7c0,8.9,7.2,16.1,16.1,16.1c8.9,0,16.1-7.2,16.1-16.1C-527,822.6-528,819.6-529.6,817.1z M-547.2,833.8
		c-2.2,0-4-1.8-4-4c0-0.8,0.3-1.5,0.6-2.2c0.4-0.6,2.1-2.8,2.7-4.9c0.1-0.3,0.4-0.5,0.7-0.5s0.6,0.2,0.7,0.5
		c0.7,2.1,2.3,4.3,2.7,4.9c0.4,0.6,0.6,1.4,0.6,2.2C-543.2,832-545,833.8-547.2,833.8z"/>
	<path d="M-500.3,861.7c-1.6-2.5-8.4-11.1-10.9-19.6c-0.4-1.4-1.7-2-2.7-2s-2.3,0.7-2.7,2c-2.6,8.5-9.3,17.1-10.9,19.6
		c-1.6,2.5-2.6,5.5-2.6,8.7c0,8.9,7.2,16.1,16.1,16.1c8.9,0,16.1-7.2,16.1-16.1C-497.7,867.2-498.7,864.2-500.3,861.7z
		 M-517.9,878.5c-2.2,0-4-1.8-4-4c0-0.8,0.3-1.5,0.6-2.2c0.4-0.6,2.1-2.8,2.7-4.9c0.1-0.3,0.4-0.5,0.7-0.5c0.3,0,0.6,0.2,0.7,0.5
		c0.7,2.1,2.3,4.3,2.7,4.9c0.4,0.6,0.6,1.4,0.6,2.2C-513.9,876.7-515.7,878.5-517.9,878.5z"/>
	<path d="M-548.9,875c-0.4-1.4-1.7-2-2.7-2s-2.3,0.7-2.7,2c-2.6,8.5-9.3,17.1-10.9,19.6c-1.6,2.5-2.6,5.5-2.6,8.7
		c0,8.9,7.2,16.1,16.1,16.1c8.9,0,16.1-7.2,16.1-16.1c0-3.2-0.9-6.1-2.6-8.7C-539.6,892.1-546.3,883.5-548.9,875z M-555.6,911.3
		c-2.2,0-4-1.8-4-4c0-0.8,0.3-1.5,0.6-2.2c0.4-0.6,2.1-2.8,2.7-4.9c0.1-0.3,0.4-0.5,0.7-0.5s0.6,0.2,0.7,0.5
		c0.7,2.1,2.3,4.3,2.7,4.9c0.4,0.6,0.6,1.4,0.6,2.2C-551.6,909.5-553.4,911.3-555.6,911.3z"/>
	<path d="M-410.8,875c-0.4-1.4-1.7-2-2.7-2s-2.3,0.7-2.7,2c-2.6,8.5-9.3,17.1-10.9,19.6s-2.6,5.5-2.6,8.7c0,8.9,7.2,16.1,16.1,16.1
		s16.1-7.2,16.1-16.1c0-3.2-0.9-6.1-2.6-8.7C-401.5,892.1-408.2,883.5-410.8,875z M-417.5,911.3c-2.2,0-4-1.8-4-4
		c0-0.8,0.3-1.5,0.6-2.2c0.4-0.6,2.1-2.8,2.7-4.9c0.1-0.3,0.4-0.5,0.7-0.5c0.3,0,0.6,0.2,0.7,0.5c0.7,2.1,2.3,4.3,2.7,4.9
		c0.4,0.6,0.6,1.4,0.6,2.2C-413.4,909.5-415.2,911.3-417.5,911.3z"/>
	<path d="M-483.2,841.9c8.9,0,16.1-7.2,16.1-16.1c0-3.2-0.9-6.1-2.6-8.7c-1.6-2.5-8.4-11.1-10.9-19.6c-0.4-1.4-1.7-2-2.7-2
		s-2.3,0.7-2.7,2c-2.6,8.5-9.3,17.1-10.9,19.6s-2.6,5.5-2.6,8.7C-499.3,834.7-492.1,841.9-483.2,841.9z M-490.6,827.6
		c0.4-0.6,2.1-2.8,2.7-4.9c0.1-0.3,0.4-0.5,0.7-0.5c0.3,0,0.6,0.2,0.7,0.5c0.7,2.1,2.3,4.3,2.7,4.9c0.4,0.6,0.6,1.4,0.6,2.2
		c0,2.2-1.8,4-4,4s-4-1.8-4-4C-491.3,829-491,828.2-490.6,827.6z"/>
	<path d="M-480.5,895.2c-0.4-1.4-1.7-2-2.7-2s-2.3,0.7-2.7,2c-2.6,8.5-9.3,17.1-10.9,19.6s-2.6,5.5-2.6,8.7
		c0,8.9,7.2,16.1,16.1,16.1s16.1-7.2,16.1-16.1c0-3.2-0.9-6.1-2.6-8.7C-471.2,912.2-478,903.7-480.5,895.2z M-487.2,931.5
		c-2.2,0-4-1.8-4-4c0-0.8,0.3-1.5,0.6-2.2c0.4-0.6,2.1-2.8,2.7-4.9c0.1-0.3,0.4-0.5,0.7-0.5c0.3,0,0.6,0.2,0.7,0.5
		c0.7,2.1,2.3,4.3,2.7,4.9c0.4,0.6,0.6,1.4,0.6,2.2C-483.2,929.7-485,931.5-487.2,931.5z"/>
	<path d="M-451.2,842.1c-0.4-1.4-1.7-2-2.7-2s-2.3,0.7-2.7,2c-2.6,8.5-9.3,17.1-10.9,19.6s-2.6,5.5-2.6,8.7
		c0,8.9,7.2,16.1,16.1,16.1s16.1-7.2,16.1-16.1c0-3.2-0.9-6.1-2.6-8.7C-441.9,859.2-448.7,850.7-451.2,842.1z M-457.9,878.5
		c-2.2,0-4-1.8-4-4c0-0.8,0.3-1.5,0.6-2.2c0.4-0.6,2.1-2.8,2.7-4.9c0.1-0.3,0.4-0.5,0.7-0.5c0.3,0,0.6,0.2,0.7,0.5
		c0.7,2.1,2.3,4.3,2.7,4.9c0.4,0.6,0.6,1.4,0.6,2.2C-453.9,876.7-455.7,878.5-457.9,878.5z"/>
	<path d="M-427.4,841.9c8.9,0,16.1-7.2,16.1-16.1c0-3.2-0.9-6.1-2.6-8.7c-1.6-2.5-8.4-11.1-10.9-19.6c-0.4-1.4-1.7-2-2.7-2
		s-2.3,0.7-2.7,2c-2.6,8.5-9.3,17.1-10.9,19.6s-2.6,5.5-2.6,8.7C-443.5,834.7-436.3,841.9-427.4,841.9z M-434.8,827.6
		c0.4-0.6,2.1-2.8,2.7-4.9c0.1-0.3,0.4-0.5,0.7-0.5c0.3,0,0.6,0.2,0.7,0.5c0.7,2.1,2.3,4.3,2.7,4.9c0.4,0.6,0.6,1.4,0.6,2.2
		c0,2.2-1.8,4-4,4s-4-1.8-4-4C-435.5,829-435.2,828.2-434.8,827.6z"/>
</g>
</svg>
