<?xml version="1.0" encoding="iso-8859-1"?>
<!-- Generator: Adobe Illustrator 16.0.0, SVG Export Plug-In . SVG Version: 6.00 Build 0)  -->
<!DOCTYPE svg PUBLIC "-//W3C//DTD SVG 1.1//EN" "http://www.w3.org/Graphics/SVG/1.1/DTD/svg11.dtd">
<svg version="1.1" id="Layer_1" xmlns="http://www.w3.org/2000/svg" xmlns:xlink="http://www.w3.org/1999/xlink" x="0px" y="0px"
	 width="32px" height="32px" viewBox="0 0 32 32" style="enable-background:new 0 0 32 32;" xml:space="preserve">
<path d="M30.46,1.61c0,0,0.002-0.001,0.002-0.001c-0.012-0.012-0.059-0.058-0.07-0.07c0,0,0,0.001-0.002,0.002
	c-2.766-2.677-6.906-1.606-9.739,1.226c-2.856,2.856-3.176,6.612-2.132,8.563c-0.33,1.969-3.588,4.146-5.733,5.133
	C12.036,17.211,0.553,28.695,0.553,28.695l0.003,0.003c-0.01,0.007-0.02,0.014-0.028,0.023c-0.703,0.702-0.703,1.842,0,2.546
	c0.036,0.035,0.172,0.17,0.206,0.207c0.705,0.703,1.845,0.703,2.547,0c0.01-0.009,0.016-0.019,0.023-0.028l0.002,0.003
	c0,0,11.484-11.483,12.232-12.232c0.987-2.146,3.164-5.404,5.133-5.734c1.951,1.045,5.706,0.725,8.563-2.131
	C32.065,8.518,33.137,4.376,30.46,1.61z M24.563,2.392c-0.21,0.195-0.509,0.475-0.867,0.81c-0.689,0.673-1.673,1.547-2.37,2.497
	c-0.167,0.217-0.319,0.504-0.449,0.765c-0.142,0.268-0.269,0.545-0.383,0.82c-0.239,0.544-0.437,1.072-0.606,1.527
	c-0.166,0.456-0.297,0.841-0.372,1.116c-0.085,0.274-0.073,0.438-0.06,0.438c-0.008,0.01-0.108-0.148-0.14-0.45
	c-0.038-0.299-0.044-0.725,0.003-1.229c0.045-0.506,0.146-1.087,0.314-1.703c0.09-0.306,0.195-0.621,0.322-0.939
	c0.141-0.324,0.288-0.625,0.504-0.941c0.414-0.604,0.918-1.075,1.42-1.47c0.497-0.399,1.001-0.711,1.447-0.946
	c0.445-0.239,0.842-0.396,1.127-0.485c0.288-0.094,0.457-0.107,0.457-0.107S24.771,2.198,24.563,2.392z"/>
<g>
</g>
<g>
</g>
<g>
</g>
<g>
</g>
<g>
</g>
<g>
</g>
<g>
</g>
<g>
</g>
<g>
</g>
<g>
</g>
<g>
</g>
<g>
</g>
<g>
</g>
<g>
</g>
<g>
</g>
</svg>
