<?xml version="1.0" encoding="utf-8"?>
<!-- Generator: Adobe Illustrator 19.1.0, SVG Export Plug-In . SVG Version: 6.00 Build 0)  -->
<!DOCTYPE svg PUBLIC "-//W3C//DTD SVG 1.1//EN" "http://www.w3.org/Graphics/SVG/1.1/DTD/svg11.dtd">
<svg version="1.1" id="Layer_1" xmlns="http://www.w3.org/2000/svg" xmlns:xlink="http://www.w3.org/1999/xlink" x="0px" y="0px"
	 viewBox="-991 737 64 64" style="enable-background:new -991 737 64 64;" xml:space="preserve">
<path d="M-931,775.1l0-8.1h-2h-12.2c0-8-11.8-20.4-13.8-20.4s-13.7,12.4-13.7,20.4H-985h-2v3.1v5.1c0,0,0,0.9,1.2,1.4
	c1.1,0.5,2.7,0.4,2.7,0.4h4.5l5,12.9c0.2,0.5,0.7,1.1,1.2,1.1h26.8c0.5,0,1-0.6,1.2-1.1l5-12.9h3.1c0,0,2.8,0.1,4-0.5
	C-930.9,775.7-931,775.1-931,775.1z M-973.1,787.3c-1.1-2.5-1.9-9.3-1.9-9.3s2.2,6.1,2.7,7.8s2.7,4.1,2.7,4.1
	S-972,789.8-973.1,787.3z M-970.1,767c0-4,3.5-9.6,6.6-13.1c-1.5,4.6-2.4,9.1-2.8,13.1H-970.1z M-963.5,767c1-6,2.9-14.5,4.6-16.8
	c1.7,2.2,3.6,10.8,4.6,16.8H-963.5z M-951.7,767c-0.4-4-1.3-8.6-2.8-13.1c3.2,3.6,6.6,9.1,6.6,13.1H-951.7z"/>
</svg>
