<?xml version="1.0" encoding="iso-8859-1"?>
<!-- Generator: Adobe Illustrator 16.0.0, SVG Export Plug-In . SVG Version: 6.00 Build 0)  -->
<!DOCTYPE svg PUBLIC "-//W3C//DTD SVG 1.1//EN" "http://www.w3.org/Graphics/SVG/1.1/DTD/svg11.dtd">
<svg version="1.1" id="Layer_1" xmlns="http://www.w3.org/2000/svg" xmlns:xlink="http://www.w3.org/1999/xlink" x="0px" y="0px"
	 width="32px" height="17.257px" viewBox="0 0 32 17.257" style="enable-background:new 0 0 32 17.257;" xml:space="preserve">
<path d="M32,3.817c0-1.406-1.581-2.296-5.286-2.976c-2.811-0.516-6.495-0.809-10.426-0.837V0C16.191,0,16.097,0.003,16,0.003
	C15.903,0.003,15.809,0,15.712,0v0.005C11.781,0.033,8.096,0.326,5.286,0.842C1.581,1.521,0,2.411,0,3.817
	c0,0.094,0.008,0.185,0.022,0.273C-0.211,8.724,3.8,17.257,10.07,17.257c2.255,0,4.095,0,5.642,0c0.187,0,0.38,0,0.576,0
	c1.547,0,3.387,0,5.642,0c6.27,0,10.281-8.533,10.048-13.166C31.992,4.002,32,3.911,32,3.817z M16,5.646
	C8.068,5.616,3.362,4.536,2.111,3.817C3.362,3.099,8.068,2.019,16,1.989c7.933,0.029,12.639,1.109,13.89,1.828
	C28.638,4.536,23.932,5.616,16,5.646z"/>
<g>
</g>
<g>
</g>
<g>
</g>
<g>
</g>
<g>
</g>
<g>
</g>
<g>
</g>
<g>
</g>
<g>
</g>
<g>
</g>
<g>
</g>
<g>
</g>
<g>
</g>
<g>
</g>
<g>
</g>
</svg>
