<?xml version="1.0" encoding="iso-8859-1"?>
<!-- Generator: Adobe Illustrator 16.0.0, SVG Export Plug-In . SVG Version: 6.00 Build 0)  -->
<!DOCTYPE svg PUBLIC "-//W3C//DTD SVG 1.1//EN" "http://www.w3.org/Graphics/SVG/1.1/DTD/svg11.dtd">
<svg version="1.1" id="Layer_1" xmlns="http://www.w3.org/2000/svg" xmlns:xlink="http://www.w3.org/1999/xlink" x="0px" y="0px"
	 width="32px" height="26.11px" viewBox="0 0 32 26.11" style="enable-background:new 0 0 32 26.11;" xml:space="preserve">
<path d="M31.266,18.577c-0.712-0.91-2.547-1.884-4.32-2.826c-1.422-0.756-2.762-1.471-3.456-2.101l0.182-0.168l-0.378-0.406
	c0,0-0.052-0.021-0.142-0.069l-0.164,0.155l-1.874-1.858c1.174-1.798,2.529-4.871,1.879-5.352c-0.709-0.524-6.316-5.276-8.959-5.921
	C11.392-0.613,0.886,8.861,0.242,10.859c-0.645,1.997,0.165,3.617,0.516,4.511c0.352,0.894-0.322,2.643-0.064,3.764
	c0.258,1.12,2.643,3.713,4.125,3.455s4.705-2.836,4.705-2.836s0.902,0,1.611,0c0.511,0,4.677-3.285,7.419-5.746l2.568,2.55
	L20.96,16.71c0.036,0.088,0.049,0.138,0.049,0.138l0.378,0.405l0.223-0.207c0.598,0.711,1.238,2.15,1.915,3.679
	c0.813,1.836,1.654,3.736,2.511,4.512c0.925,0.839,1.773,0.927,2.322,0.854c0.469-0.063,0.905-0.271,1.233-0.577
	c0.123-0.114,0.231-0.243,0.32-0.383l0.126-0.197c0.065-0.049,0.129-0.1,0.188-0.155c0.329-0.306,0.565-0.726,0.661-1.189
	c0.054-0.258,0.073-0.589-0.002-0.97c0.03-0.04,0.063-0.08,0.09-0.123l0.126-0.197c0.065-0.048,0.129-0.1,0.188-0.154
	c0.328-0.307,0.565-0.726,0.661-1.189C32.064,20.412,32.037,19.561,31.266,18.577z M9.362,8.378
	c-0.914,0.611-3.48,2.625-4.351,3.762c-0.87,1.136-2.303-1.056-2.303-1.056c0.627-1.353,4.719-5.091,5.654-5.445
	C9.297,5.284,10.276,7.767,9.362,8.378z M27.053,19.735c-0.143-0.195-0.293-0.402-0.448-0.617c0.228,0.123,0.453,0.245,0.673,0.368
	c0.414,0.459,0.635,0.685,0.858,0.911c0.099,0.1,0.2,0.203,0.318,0.326C28.056,20.438,27.575,20.1,27.053,19.735z M29.275,21.714
	c0.063,0.063,0.117,0.126,0.169,0.191c-0.48-0.141-0.955-0.342-1.197-0.601c-0.104-0.111-0.326-0.397-0.622-0.794
	C28.486,21.116,29.136,21.585,29.275,21.714z M27.169,20.41c-0.211-0.178-0.431-0.361-0.657-0.55
	c-0.044-0.072-0.088-0.146-0.133-0.221c0.154,0.107,0.308,0.214,0.457,0.318C26.954,20.117,27.065,20.269,27.169,20.41z
	 M26.197,18.553c-0.422-0.587-0.864-1.207-1.284-1.798c0.777,0.914,1.34,1.567,1.768,2.056
	C26.52,18.725,26.359,18.639,26.197,18.553z M26.288,19.202c-0.097-0.067-0.193-0.135-0.29-0.202c-0.06-0.1-0.12-0.201-0.181-0.303
	c0.058,0.03,0.115,0.062,0.173,0.092C26.09,18.929,26.19,19.066,26.288,19.202z M25.8,19.268c-0.076-0.063-0.151-0.125-0.228-0.188
	c0.065,0.045,0.131,0.09,0.195,0.135C25.779,19.232,25.79,19.25,25.8,19.268z M24.993,17.909c-0.065-0.035-0.132-0.071-0.196-0.106
	c-0.14-0.313-0.278-0.627-0.414-0.927C24.581,17.212,24.786,17.56,24.993,17.909z M24.993,18.997c0.02,0.045,0.039,0.089,0.06,0.133
	c-0.165-0.163-0.338-0.333-0.525-0.518C24.68,18.739,24.836,18.868,24.993,18.997z M25.032,18.331
	c-0.011-0.023-0.021-0.047-0.031-0.07c0.097,0.053,0.195,0.104,0.294,0.157c0.032,0.054,0.063,0.107,0.096,0.161
	C25.27,18.496,25.15,18.413,25.032,18.331z M25.304,17.832c0.095,0.133,0.188,0.265,0.283,0.396
	c-0.024-0.013-0.048-0.025-0.071-0.038C25.445,18.071,25.375,17.952,25.304,17.832z M26.277,20.063
	c0.159,0.265,0.308,0.51,0.443,0.732c-0.271-0.276-0.61-0.618-1.045-1.049c-0.047-0.099-0.094-0.199-0.141-0.3
	C25.785,19.653,26.034,19.86,26.277,20.063z M27.7,22.291c0.145,0.166,0.293,0.334,0.519,0.575c0.051,0.055,0.097,0.108,0.143,0.163
	c-0.324-0.116-0.681-0.315-1.056-0.655c-0.399-0.361-0.804-1-1.206-1.771C27.097,21.606,27.394,21.943,27.7,22.291z M27.67,21.717
	c-0.086-0.108-0.332-0.497-0.667-1.046c0.915,0.77,1.638,1.393,1.824,1.593c0.047,0.051,0.091,0.111,0.133,0.178
	C28.507,22.355,28.045,22.148,27.67,21.717z M29.124,22.772c0.05,0.122,0.094,0.252,0.133,0.389
	c-0.125,0.01-0.263,0.006-0.413-0.013c-0.115-0.162-0.247-0.326-0.4-0.491c-0.023-0.024-0.042-0.046-0.063-0.068
	C28.626,22.688,28.877,22.744,29.124,22.772z M29.092,22.107c0.194,0.069,0.396,0.132,0.594,0.182
	c0.031,0.064,0.059,0.128,0.084,0.193c-0.141,0.01-0.287,0.013-0.439,0.004C29.261,22.344,29.183,22.216,29.092,22.107z
	 M28.891,20.739c-0.226-0.242-0.381-0.4-0.536-0.558c-0.052-0.054-0.104-0.106-0.159-0.163c0.779,0.475,1.422,0.941,1.767,1.382
	c0.079,0.102,0.148,0.201,0.211,0.3C29.797,21.511,29.34,21.222,28.891,20.739z M29.506,20.023c-0.224-0.24-0.368-0.405-0.513-0.568
	c-0.444-0.505-0.867-0.987-3.403-3.477c1.831,1.51,3.959,3.285,4.301,3.651c0.389,0.418,0.585,1.427,0.643,2.08
	c-0.004-0.007-0.008-0.015-0.012-0.021C30.36,21.247,30.079,20.639,29.506,20.023z M23.103,14.012
	c0.033,0.023,0.07,0.049,0.114,0.077c4.487,4.364,5.002,4.95,5.546,5.567c0.146,0.166,0.293,0.334,0.519,0.576
	c0.122,0.132,0.23,0.263,0.326,0.393c-0.551-0.453-1.306-0.916-2.133-1.379c-0.665-0.741-1.828-2.086-4.277-4.995
	c-0.054-0.092-0.095-0.162-0.124-0.212L23.103,14.012z M19.369,13.259c0.432-0.405,0.798-0.769,1.07-1.067l1.746,1.731l-0.161,0.152
	c0.036,0.089,0.049,0.138,0.049,0.138l0.378,0.405l0.223-0.207c0.527,0.628,1.089,1.823,1.679,3.146
	c-0.803-0.451-1.491-0.879-1.926-1.273l0.182-0.167l-0.378-0.406c0,0-0.052-0.021-0.142-0.07l-0.164,0.156L19.369,13.259z
	 M22.01,16.674l0.029-0.028c0.033,0.023,0.07,0.049,0.114,0.078c1.469,1.428,2.51,2.45,3.268,3.203
	c0.55,1.154,1.11,2.162,1.678,2.675c0.569,0.517,1.108,0.747,1.567,0.832c0.225,0.336,0.372,0.653,0.473,0.917
	c-0.381-0.189-0.852-0.482-1.311-0.977c-0.227-0.242-0.382-0.4-0.537-0.559c-0.577-0.586-1.125-1.142-5.157-5.93
	C22.081,16.793,22.04,16.723,22.01,16.674z M27.183,23.938c-0.341-0.365-1.959-2.615-3.334-4.55
	c2.302,2.707,2.752,3.165,3.224,3.644c0.153,0.154,0.309,0.312,0.531,0.551c0.587,0.631,1.19,0.957,1.622,1.147
	C28.58,24.628,27.576,24.359,27.183,23.938z M29.219,25.045c-0.661,0.137-1.827,0.209-2.612-0.694
	c-0.204-0.254-1.294-2.071-2.366-3.884c1.204,1.685,2.418,3.358,2.719,3.681C27.362,24.58,28.459,24.935,29.219,25.045z
	 M28.317,25.785c-0.483,0.065-1.237-0.017-2.075-0.776c-0.809-0.732-1.637-2.602-2.436-4.408c-0.165-0.371-0.327-0.737-0.487-1.09
	c1.245,2.112,2.792,4.712,3.053,5.037c0.904,1.039,2.235,0.94,2.958,0.786C29.051,25.57,28.693,25.734,28.317,25.785z
	 M29.053,23.472c0.1,0.003,0.192-0.001,0.279-0.009c0.07,0.315,0.117,0.635,0.139,0.895C29.382,24.109,29.251,23.804,29.053,23.472z
	 M29.562,23.112c-0.03-0.105-0.065-0.213-0.104-0.318c0.14,0.002,0.274-0.004,0.402-0.015c0.017,0.075,0.029,0.149,0.04,0.224
	C29.792,23.051,29.678,23.085,29.562,23.112z M29.783,24.378c-0.021-0.271-0.062-0.531-0.077-0.623
	c-0.018-0.1-0.041-0.219-0.069-0.346c0.1-0.023,0.195-0.053,0.29-0.089C29.935,23.724,29.862,24.099,29.783,24.378z M29.888,22.019
	c-0.035-0.063-0.075-0.125-0.118-0.187c0.189,0.109,0.366,0.196,0.52,0.265C30.167,22.077,30.03,22.05,29.888,22.019z
	 M30.393,22.699c-0.064,0.056-0.135,0.105-0.207,0.152c-0.006-0.036-0.014-0.073-0.021-0.11
	C30.245,22.729,30.323,22.715,30.393,22.699z M30.283,22.411c-0.062,0.013-0.13,0.024-0.2,0.035
	c-0.009-0.025-0.019-0.051-0.028-0.076C30.132,22.386,30.21,22.4,30.283,22.411z M30.588,23.525
	c-0.077,0.372-0.267,0.719-0.522,0.979c0.097-0.337,0.19-0.812,0.158-1.321c0.143-0.079,0.276-0.17,0.396-0.275
	C30.642,23.145,30.625,23.354,30.588,23.525z M30.846,21.743c-0.021-0.271-0.062-0.531-0.077-0.622
	c-0.079-0.457-0.269-1.286-0.654-1.7c-0.301-0.324-1.883-1.654-3.478-2.976c1.73,1.199,3.464,2.414,3.701,2.635
	C31.186,19.929,31.03,21.093,30.846,21.743z M31.652,20.891c-0.077,0.372-0.267,0.719-0.522,0.979
	c0.204-0.709,0.398-2.031-0.577-3.011c-0.304-0.28-2.785-2.008-4.802-3.399c0.339,0.185,0.693,0.373,1.052,0.563
	c1.746,0.927,3.551,1.886,4.224,2.744C31.723,19.657,31.751,20.413,31.652,20.891z"/>
<g>
</g>
<g>
</g>
<g>
</g>
<g>
</g>
<g>
</g>
<g>
</g>
<g>
</g>
<g>
</g>
<g>
</g>
<g>
</g>
<g>
</g>
<g>
</g>
<g>
</g>
<g>
</g>
<g>
</g>
</svg>
