<?xml version="1.0" encoding="iso-8859-1"?>
<!-- Generator: Adobe Illustrator 16.0.0, SVG Export Plug-In . SVG Version: 6.00 Build 0)  -->
<!DOCTYPE svg PUBLIC "-//W3C//DTD SVG 1.1//EN" "http://www.w3.org/Graphics/SVG/1.1/DTD/svg11.dtd">
<svg version="1.1" id="Layer_1" xmlns="http://www.w3.org/2000/svg" xmlns:xlink="http://www.w3.org/1999/xlink" x="0px" y="0px"
	 width="32px" height="30.623px" viewBox="0 0 32 30.623" style="enable-background:new 0 0 32 30.623;" xml:space="preserve">
<path d="M28.226,0L15.722,12.504l-0.913,0.914l-1.257,1.256L0.467,27.759l0.003,0.002c-0.634,0.664-0.628,1.715,0.024,2.368
	c0.653,0.652,1.703,0.658,2.368,0.024l0.002,0.002l0.026-0.025c0.001-0.001,0.002-0.001,0.003-0.002
	c0.001,0,0.001-0.002,0.002-0.003l13.813-13.813c1.076,0.075,2.094,0.722,3.01,1.331c0.171-0.446-0.015-1.203-0.236-1.991
	L30.142,4.993c0.3,0.689,0.544,1.464,0.734,1.843c1.404-0.656,1.403-3.811,0.489-5.181C30.452,0.285,28.226,0,28.226,0z
	 M19.258,14.848c-0.084-0.313-0.155-0.615-0.195-0.89l10.22-10.221c0.186,0.104,0.356,0.307,0.516,0.571L19.258,14.848z"/>
<g>
</g>
<g>
</g>
<g>
</g>
<g>
</g>
<g>
</g>
<g>
</g>
<g>
</g>
<g>
</g>
<g>
</g>
<g>
</g>
<g>
</g>
<g>
</g>
<g>
</g>
<g>
</g>
<g>
</g>
</svg>
