<?xml version="1.0" encoding="iso-8859-1"?>
<!-- Generator: Adobe Illustrator 16.0.0, SVG Export Plug-In . SVG Version: 6.00 Build 0)  -->
<!DOCTYPE svg PUBLIC "-//W3C//DTD SVG 1.1//EN" "http://www.w3.org/Graphics/SVG/1.1/DTD/svg11.dtd">
<svg version="1.1" id="Layer_1" xmlns="http://www.w3.org/2000/svg" xmlns:xlink="http://www.w3.org/1999/xlink" x="0px" y="0px"
	 width="32px" height="28.58px" viewBox="0 0 32 28.58" style="enable-background:new 0 0 32 28.58;" xml:space="preserve">
<g>
	<path d="M30.355,5.591H1.41c-0.741,0-1.342,0.601-1.342,1.341v20.307c0,0.74,0.601,1.342,1.342,1.342h28.945
		c0.741,0,1.341-0.602,1.341-1.342V6.932C31.696,6.191,31.097,5.591,30.355,5.591z M30.129,20.583c0,0.666-0.54,1.206-1.205,1.206
		H2.91c-0.666,0-1.205-0.54-1.205-1.206V8.705c0-0.666,0.539-1.206,1.205-1.206h26.014c0.665,0,1.205,0.54,1.205,1.206V20.583z"/>
	<path d="M30.679,0H1.322C0.593,0,0,0.592,0,1.322v2.264c0,0.729,0.593,1.322,1.322,1.322h29.356C31.408,4.908,32,4.315,32,3.586
		V1.322C32,0.592,31.408,0,30.679,0z M5.303,3.855c-0.707,0-1.28-0.573-1.28-1.28s0.573-1.28,1.28-1.28s1.279,0.573,1.279,1.28
		S6.01,3.855,5.303,3.855z M9.665,3.855c-0.707,0-1.28-0.573-1.28-1.28s0.573-1.28,1.28-1.28s1.28,0.573,1.28,1.28
		S10.372,3.855,9.665,3.855z M16.459,3.855c-0.707,0-1.28-0.573-1.28-1.28s0.573-1.28,1.28-1.28s1.279,0.573,1.279,1.28
		S17.166,3.855,16.459,3.855z M23.479,3.855c-0.707,0-1.28-0.573-1.28-1.28s0.573-1.28,1.28-1.28s1.28,0.573,1.28,1.28
		S24.187,3.855,23.479,3.855z M27.842,3.855c-0.707,0-1.28-0.573-1.28-1.28s0.573-1.28,1.28-1.28s1.28,0.573,1.28,1.28
		S28.549,3.855,27.842,3.855z"/>
	<path d="M27.777,8.93H4.261c-0.471,0-0.853,0.381-0.853,0.852s0.382,0.853,0.853,0.853h23.517c0.471,0,0.852-0.382,0.852-0.853
		S28.248,8.93,27.777,8.93z"/>
</g>
<g>
</g>
<g>
</g>
<g>
</g>
<g>
</g>
<g>
</g>
<g>
</g>
<g>
</g>
<g>
</g>
<g>
</g>
<g>
</g>
<g>
</g>
<g>
</g>
<g>
</g>
<g>
</g>
<g>
</g>
</svg>
