<?xml version="1.0" encoding="iso-8859-1"?>
<!-- Generator: Adobe Illustrator 16.0.0, SVG Export Plug-In . SVG Version: 6.00 Build 0)  -->
<!DOCTYPE svg PUBLIC "-//W3C//DTD SVG 1.1//EN" "http://www.w3.org/Graphics/SVG/1.1/DTD/svg11.dtd">
<svg version="1.1" id="Layer_1" xmlns="http://www.w3.org/2000/svg" xmlns:xlink="http://www.w3.org/1999/xlink" x="0px" y="0px"
	 width="17.919px" height="32px" viewBox="0 0 17.919 32" style="enable-background:new 0 0 17.919 32;" xml:space="preserve">
<g>
	<circle cx="10.85" cy="25.939" r="1.559"/>
	<path d="M16.811,0.697c-0.46,0-1.661,0-2.963,0C13.624,0.303,12.347,0,10.8,0C9.254,0,7.977,0.303,7.753,0.697
		c-1.496,0-2.976,0-3.497,0c-1.19,0-1.108,1.296-1.108,1.296h0.748c0.013,0.269,0.04,0.806,0.075,1.519H1.947
		c-1.041,0-1.416,1.32-1.626,2.471C0.117,7.1,0,8.618,0,10.148c0,1.487,0.108,2.859,0.305,3.865
		c0.122,0.623,0.445,2.276,1.643,2.276h2.693c0.202,1.613,0.914,3.265,2.719,4.127H7.274c0,0-3.143,3.095-3.143,5.486
		s0,6.097,0,6.097h6.542h0.023h6.542c0,0,0-3.705,0-6.097s-3.142-5.486-3.142-5.486h-0.109c2.016-0.963,2.67-2.91,2.771-4.689
		c0.13-2.295,0.619-12.225,0.693-13.734h0.466C17.918,1.993,18,0.697,16.811,0.697z M2.104,14.789
		c-0.273-0.433-0.625-2.154-0.603-4.88c0.021-2.685,0.377-4.418,0.646-4.897h1.897c0.151,3.061,0.374,7.525,0.493,9.777H2.104z
		 M6.652,17.425c-0.109-0.232-0.184-0.51-0.227-0.712c-0.052-0.281-0.065-0.479-0.102-0.733C6.259,15.495,6.218,14.98,6.16,14.45
		c-0.06-0.53-0.102-1.08-0.142-1.639c-0.039-0.559-0.095-1.126-0.117-1.694C5.838,9.981,5.785,8.84,5.781,7.776
		C5.775,6.712,5.786,5.717,5.82,4.862C5.877,3.154,6.021,2.01,6.021,2.01s0.271,1.121,0.517,2.813
		c0.129,0.846,0.25,1.833,0.361,2.893c0.105,1.062,0.213,2.185,0.287,3.314c0.05,0.563,0.065,1.129,0.097,1.685
		c0.029,0.557,0.057,1.104,0.064,1.635c0.01,0.531,0.033,1.044,0.029,1.532c0.001,0.234,0.001,0.463,0.002,0.684
		c0.012,0.253,0.043,0.408,0.071,0.578c0.158,0.725,0.599,1.273,0.929,1.622c0.339,0.349,0.581,0.519,0.581,0.519
		s-0.293-0.039-0.759-0.275C7.745,18.778,7.071,18.322,6.652,17.425z M10.85,28.436c-1.377,0-2.497-1.12-2.497-2.497
		s1.12-2.497,2.497-2.497s2.497,1.12,2.497,2.497S12.227,28.436,10.85,28.436z"/>
</g>
<g>
</g>
<g>
</g>
<g>
</g>
<g>
</g>
<g>
</g>
<g>
</g>
<g>
</g>
<g>
</g>
<g>
</g>
<g>
</g>
<g>
</g>
<g>
</g>
<g>
</g>
<g>
</g>
<g>
</g>
</svg>
