<?xml version="1.0" encoding="utf-8"?>
<!-- Generator: Adobe Illustrator 19.1.0, SVG Export Plug-In . SVG Version: 6.00 Build 0)  -->
<!DOCTYPE svg PUBLIC "-//W3C//DTD SVG 1.1//EN" "http://www.w3.org/Graphics/SVG/1.1/DTD/svg11.dtd">
<svg version="1.1"
	 id="svg2" xmlns:svg="http://www.w3.org/2000/svg" xmlns:ns1="http://sozi.baierouge.fr" xmlns:inkscape="http://www.inkscape.org/namespaces/inkscape" xmlns:cc="http://creativecommons.org/ns#" xmlns:rdf="http://www.w3.org/1999/02/22-rdf-syntax-ns#" xmlns:sodipodi="http://sodipodi.sourceforge.net/DTD/sodipodi-0.dtd" xmlns:dc="http://purl.org/dc/elements/1.1/" inkscape:version="0.48.2 r9819" sodipodi:version="0.32" sodipodi:docname="New document 1"
	 xmlns="http://www.w3.org/2000/svg" xmlns:xlink="http://www.w3.org/1999/xlink" x="0px" y="0px" viewBox="-747 493 552 552"
	 style="enable-background:new -747 493 552 552;" xml:space="preserve">
<sodipodi:namedview  id="base" inkscape:cx="463.89554" borderopacity="1.0" inkscape:zoom="0.42037693" showgrid="false" inkscape:cy="329.84615" pagecolor="#ffffff" bordercolor="#666666" units="in" fit-margin-top="0.25" fit-margin-left="0.25" inkscape:window-height="842" inkscape:pageshadow="2" inkscape:pageopacity="0.0" inkscape:window-width="1440" fit-margin-bottom="0.25" fit-margin-right="0.25" inkscape:current-layer="svg2" inkscape:window-x="-4" inkscape:window-maximized="1" inkscape:document-units="in" inkscape:window-y="-4">
	
		<inkscape:grid  type="axonomgrid" id="grid3477" units="in" spacingy="0.25in" enabled="false" empspacing="4" visible="true" snapvisiblegridlinesonly="true">
		</inkscape:grid>
	
		<inkscape:grid  type="axonomgrid" id="grid3479" units="in" spacingy="0.25in" enabled="false" empspacing="5" gridanglez="30" visible="true" gridanglex="60" snapvisiblegridlinesonly="true">
		</inkscape:grid>
	
		<inkscape:grid  type="xygrid" id="grid3481" spacingy="0.25px" enabled="false" empspacing="4" spacingx="0.25px" visible="true" dotted="false" snapvisiblegridlinesonly="true">
		</inkscape:grid>
</sodipodi:namedview>
<path id="path3783" inkscape:connector-curvature="0" d="M-478.7,564.5c-7,0-12.6,5.6-12.6,12.6v9c-2.3-2.4-5.5-3.9-9.1-3.9h-94.7
	c-7,0-12.6,5.6-12.6,12.6v7.8c0,7,5.6,12.6,12.6,12.6h94.7c3.6,0,6.8-1.5,9.1-3.9V648c-11.2,3.3-19.3,13.5-19.3,25.8v40.4h-15.1
	c-14.9,0-26.9,12-26.9,26.9v23.6h-85.2c-25.5,0-46.4,19-49.3,43.7h-0.3V930h-9.3c-15.4,0-27.8,12.4-27.8,27.8
	c0,15.4,1.8,15.8,1.8,15.8h195.2c0,0,1.8-0.4,1.8-15.8c0-15.4-12.9-31.6-27.8-27.8h-7.7v-66.2h291.9V931c0,14.9,12,26.9,26.9,26.9
	c1,0,2.1-0.1,3.1-0.2v0.2h21.8V675.5h-21.8v0.2c-1-0.1-2-0.2-3.1-0.2c-14.9,0-22.3,12.7-26.9,26.9v62.2h-135.2V741
	c0-14.9-12-26.9-26.9-26.9h-15.2v-40.4c0-12.3-8.1-22.6-19.3-25.8v-36.8c2.3,2.5,5.6,4.1,9.3,4.1h94.6c7,0,12.6-5.6,12.6-12.6v-7.8
	c0-7-5.6-12.6-12.6-12.6h-94.6c-3.7,0-7,1.6-9.3,4.1v-9.2C-466.1,570-471.7,564.5-478.7,564.5L-478.7,564.5z"/>
</svg>
