<?xml version="1.0" encoding="iso-8859-1"?>
<!-- Generator: Adobe Illustrator 16.0.0, SVG Export Plug-In . SVG Version: 6.00 Build 0)  -->
<!DOCTYPE svg PUBLIC "-//W3C//DTD SVG 1.1//EN" "http://www.w3.org/Graphics/SVG/1.1/DTD/svg11.dtd">
<svg version="1.1" id="Layer_1" xmlns="http://www.w3.org/2000/svg" xmlns:xlink="http://www.w3.org/1999/xlink" x="0px" y="0px"
	 width="31.817px" height="31.999px" viewBox="0 0 31.817 31.999" style="enable-background:new 0 0 31.817 31.999;"
	 xml:space="preserve">
<g>
	<path d="M13.41,12.277l0.099,0.15c-0.018-0.044-0.047-0.082-0.072-0.123C13.428,12.295,13.417,12.288,13.41,12.277z"/>
	<path d="M21.533,0.841l-5.853,5.853l-2.836,7.815l0.208,0.207c-0.267,0.469-0.675,1.329-0.374,1.793c0,0.012,0,0.021,0.002,0.031
		c-0.215,3.546-3.27,4.327-3.723,4.781c-0.506,0.506-8.584,8.585-8.584,8.585l0.002,0.001c-0.005,0.007-0.011,0.011-0.019,0.016
		c-0.475,0.474-0.475,1.246-0.001,1.72c0.476,0.476,1.247,0.476,1.721,0.001c0.007-0.006,0.01-0.013,0.016-0.019
		c0.012-0.012,7.983-7.981,8.567-8.567c0.521-0.519,1.94-4.002,4.741-3.928c0.389,0.557,1.363,0.102,1.871-0.193l0.169,0.169
		l7.816-2.835l5.925-5.926c0.247,0.056,0.429,0.037,0.534-0.068c0.558-0.558-1.269-3.287-4.079-6.098
		c-2.81-2.81-5.54-4.635-6.097-4.079C21.409,0.232,21.415,0.489,21.533,0.841z M24.851,15.632l-7.221,2.62l-1.342-1.344l1.03-1.03
		l-1.249-1.248l-1.03,1.03l-1.34-1.34l2.62-7.221l5.542-5.542c0.651,1.182,2.015,2.895,3.759,4.64
		c1.834,1.834,3.631,3.244,4.815,3.85L24.851,15.632z"/>
</g>
<g>
</g>
<g>
</g>
<g>
</g>
<g>
</g>
<g>
</g>
<g>
</g>
<g>
</g>
<g>
</g>
<g>
</g>
<g>
</g>
<g>
</g>
<g>
</g>
<g>
</g>
<g>
</g>
<g>
</g>
</svg>
