<?xml version="1.0" encoding="utf-8"?>
<!-- Generator: Adobe Illustrator 19.1.0, SVG Export Plug-In . SVG Version: 6.00 Build 0)  -->
<!DOCTYPE svg PUBLIC "-//W3C//DTD SVG 1.1//EN" "http://www.w3.org/Graphics/SVG/1.1/DTD/svg11.dtd">
<svg version="1.1" id="Layer_1" xmlns="http://www.w3.org/2000/svg" xmlns:xlink="http://www.w3.org/1999/xlink" x="0px" y="0px"
	 viewBox="-747 493 552 552" style="enable-background:new -747 493 552 552;" xml:space="preserve">
<g id="svg2" xmlns:svg="http://www.w3.org/2000/svg" xmlns:ns1="http://sozi.baierouge.fr" xmlns:inkscape="http://www.inkscape.org/namespaces/inkscape" xmlns:cc="http://creativecommons.org/ns#" xmlns:rdf="http://www.w3.org/1999/02/22-rdf-syntax-ns#" xmlns:sodipodi="http://sodipodi.sourceforge.net/DTD/sodipodi-0.dtd" xmlns:dc="http://purl.org/dc/elements/1.1/" inkscape:version="0.48.2 r9819" sodipodi:version="0.32" sodipodi:docname="New document 1">
	
		<sodipodi:namedview  id="base" inkscape:cx="463.89554" borderopacity="1.0" inkscape:zoom="0.42037693" showgrid="false" inkscape:cy="329.84615" pagecolor="#ffffff" bordercolor="#666666" units="in" fit-margin-top="0.25" fit-margin-left="0.25" inkscape:window-height="842" inkscape:pageshadow="2" inkscape:pageopacity="0.0" inkscape:window-width="1440" fit-margin-bottom="0.25" fit-margin-right="0.25" inkscape:current-layer="svg2" inkscape:window-x="-4" inkscape:window-maximized="1" inkscape:document-units="in" inkscape:window-y="-4">
		
			<inkscape:grid  type="axonomgrid" id="grid3477" units="in" spacingy="0.25in" enabled="false" empspacing="4" visible="true" snapvisiblegridlinesonly="true">
			</inkscape:grid>
		
			<inkscape:grid  type="axonomgrid" id="grid3479" units="in" spacingy="0.25in" enabled="false" empspacing="5" gridanglez="30" visible="true" gridanglex="60" snapvisiblegridlinesonly="true">
			</inkscape:grid>
		
			<inkscape:grid  type="xygrid" id="grid3481" spacingy="0.25px" enabled="false" empspacing="4" spacingx="0.25px" visible="true" dotted="false" snapvisiblegridlinesonly="true">
			</inkscape:grid>
	</sodipodi:namedview>
	<g>
		<rect x="-565.8" y="946.4" width="346.3" height="30.6"/>
		<polygon points="-712.5,559 -712.5,670.9 -653.2,681.4 -633.5,573.8 		"/>
		<path d="M-505.2,680.2c-16.1-3.6-57.6-15.2-57.6-15.2l65.2-4.1l32.3,47c0,0,5,8.2,9,8.7c2,0.3,4.9,1.3,9.1-1.8
			c3.2-2.4,4.2-4.4,4.8-7.1c0.6-3.1-0.9-5.6-2.1-8.7c-1.1-2.9-5.4-13.3-10.4-25.6c17,6.4,35.4,13.6,43.9,17.7
			c17.6,8.6,25-12.5,15.9-18.5c-2.8-1.9-11.9-8-23.5-15.8l10.3,0.5c0,0,9.6,1,12.4-1.8c1.4-1.4,4-3.1,4.1-8.3c0.1-4-1-6-2.8-8.1
			c-2.1-2.4-5-2.7-8.2-3.6c-7.7-2.2-71.8-18-83.3-20.8c-2.9-1.5-5.2-2.4-6.7-2.7c-12.5-2.4-104.6,0-115.2,0
			c-10.6,0-21.2-18.2-21.2-18.2l-13.7,86.4l51.5,18.6c0,0,77.6,3.2,86.5,3.2C-496.1,702-489.1,683.8-505.2,680.2z"/>
		<path d="M-458.6,748.8c3.1,3.1,8.1,3.1,11.2,0l2.5-2.5c3.1-3.1,3.1-8.1,0-11.2l-3.1-3.1c-3.1-3.1-8.1-3.1-11.2,0l-2.5,2.5
			c-3.1,3.1-3.1,8.1,0,11.2L-458.6,748.8z"/>
		<path d="M-471.7,774.5c-3.1,3.1-3.1,8.1,0,11.2l3.1,3.1c3.1,3.1,8.1,3.1,11.2,0l2.5-2.5c3.1-3.1,3.1-8.1,0-11.2l-3.1-3.1
			c-3.1-3.1-8.1-3.1-11.2,0L-471.7,774.5z"/>
		<path d="M-430.6,760.9c3.1,3.1,8.1,3.1,11.2,0l2.5-2.5c3.1-3.1,3.1-8.1,0-11.2l-3.1-3.1c-3.1-3.1-8.1-3.1-11.2,0l-2.5,2.5
			c-3.1,3.1-3.1,8.1,0,11.2L-430.6,760.9z"/>
		<path d="M-408.4,783.2l2.5-2.5c3.1-3.1,3.1-8.1,0-11.2l-3.1-3.1c-3.1-3.1-8.1-3.1-11.2,0l-2.5,2.5c-3.1,3.1-3.1,8.1,0,11.2
			l3.1,3.1C-416.6,786.2-411.5,786.2-408.4,783.2z"/>
		<path d="M-383.1,822.3c3.1-3.1,3.1-8.1,0-11.2l-3.1-3.1c-3.1-3.1-8.1-3.1-11.2,0l-2.5,2.5c-3.1,3.1-3.1,8.1,0,11.2l3.1,3.1
			c3.1,3.1,8.1,3.1,11.2,0L-383.1,822.3z"/>
		<path d="M-437.2,813l3.1,3.1c3.1,3.1,8.1,3.1,11.2,0l2.5-2.5c3.1-3.1,3.1-8.1,0-11.2l-3.1-3.1c-3.1-3.1-8.1-3.1-11.2,0l-2.5,2.5
			C-440.3,804.8-440.3,809.9-437.2,813z"/>
		<path d="M-457.8,827.4c3.1-3.1,3.1-8.1,0-11.2l-3.1-3.1c-3.1-3.1-8.1-3.1-11.2,0l-2.5,2.5c-3.1,3.1-3.1,8.1,0,11.2l3.1,3.1
			c3.1,3.1,8.1,3.1,11.2,0L-457.8,827.4z"/>
		<path d="M-408.4,883.1c3.1,3.1,8.1,3.1,11.2,0l2.5-2.5c3.1-3.1,3.1-8.1,0-11.2l-3.1-3.1c-3.1-3.1-8.1-3.1-11.2,0l-2.5,2.5
			c-3.1,3.1-3.1,8.1,0,11.2L-408.4,883.1z"/>
		<path d="M-406.3,926.5c3.1,3.1,8.1,3.1,11.2,0l2.5-2.5c3.1-3.1,3.1-8.1,0-11.2l-3.1-3.1c-3.1-3.1-8.1-3.1-11.2,0l-2.5,2.5
			c-3.1,3.1-3.1,8.1,0,11.2L-406.3,926.5z"/>
		<path d="M-432.8,890.9c3.1,3.1,8.1,3.1,11.2,0l2.5-2.5c3.1-3.1,3.1-8.1,0-11.2l-3.1-3.1c-3.1-3.1-8.1-3.1-11.2,0l-2.5,2.5
			c-3.1,3.1-3.1,8.1,0,11.2L-432.8,890.9z"/>
		<path d="M-382.8,762.7c-3.1-3.1-8.1-3.1-11.2,0l-2.5,2.5c-3.1,3.1-3.1,8.1,0,11.2l3.1,3.1c3.1,3.1,8.1,3.1,11.2,0l2.5-2.5
			c3.1-3.1,3.1-8.1,0-11.2L-382.8,762.7z"/>
		<path d="M-398.5,722.6c-3.1,3.1-3.1,8.1,0,11.2l3.1,3.1c3.1,3.1,8.1,3.1,11.2,0l2.5-2.5c3.1-3.1,3.1-8.1,0-11.2l-3.1-3.1
			c-3.1-3.1-8.1-3.1-11.2,0L-398.5,722.6z"/>
		<path d="M-377.9,806.6l3.1,3.1c3.1,3.1,8.1,3.1,11.2,0l2.5-2.5c3.1-3.1,3.1-8.1,0-11.2l-3.1-3.1c-3.1-3.1-8.1-3.1-11.2,0l-2.5,2.5
			C-381,798.5-381,803.5-377.9,806.6z"/>
		<path d="M-337.6,843c3.1,3.1,8.1,3.1,11.2,0l2.5-2.5c3.1-3.1,3.1-8.1,0-11.2l-3.1-3.1c-3.1-3.1-8.1-3.1-11.2,0l-2.5,2.5
			c-3.1,3.1-3.1,8.1,0,11.2L-337.6,843z"/>
		<path d="M-366,832.6c-3.1,3.1-3.1,8.1,0,11.2l3.1,3.1c3.1,3.1,8.1,3.1,11.2,0l2.5-2.5c3.1-3.1,3.1-8.1,0-11.2l-3.1-3.1
			c-3.1-3.1-8.1-3.1-11.2,0L-366,832.6z"/>
		<path d="M-335.6,859.1l-2.5,2.5c-3.1,3.1-3.1,8.1,0,11.2l3.1,3.1c3.1,3.1,8.1,3.1,11.2,0l2.5-2.5c3.1-3.1,3.1-8.1,0-11.2l-3.1-3.1
			C-327.5,856-332.5,856-335.6,859.1z"/>
		<path d="M-348.4,894.2l3.1,3.1c3.1,3.1,8.1,3.1,11.2,0l2.5-2.5c3.1-3.1,3.1-8.1,0-11.2l-3.1-3.1c-3.1-3.1-8.1-3.1-11.2,0l-2.5,2.5
			C-351.5,886.1-351.5,891.1-348.4,894.2z"/>
		<path d="M-450.4,857.7c3.1,3.1,8.1,3.1,11.2,0l2.5-2.5c3.1-3.1,3.1-8.1,0-11.2l-3.1-3.1c-3.1-3.1-8.1-3.1-11.2,0l-2.5,2.5
			c-3.1,3.1-3.1,8.1,0,11.2L-450.4,857.7z"/>
		<path d="M-478.1,863.5l-2.5,2.5c-3.1,3.1-3.1,8.1,0,11.2l3.1,3.1c3.1,3.1,8.1,3.1,11.2,0l2.5-2.5c3.1-3.1,3.1-8.1,0-11.2l-3.1-3.1
			C-470,860.4-475,860.4-478.1,863.5z"/>
	</g>
</g>
<g id="Layer_2">
</g>
</svg>
