<?xml version="1.0" encoding="iso-8859-1"?>
<!-- Generator: Adobe Illustrator 16.0.0, SVG Export Plug-In . SVG Version: 6.00 Build 0)  -->
<!DOCTYPE svg PUBLIC "-//W3C//DTD SVG 1.1//EN" "http://www.w3.org/Graphics/SVG/1.1/DTD/svg11.dtd">
<svg version="1.1" id="Layer_1" xmlns="http://www.w3.org/2000/svg" xmlns:xlink="http://www.w3.org/1999/xlink" x="0px" y="0px"
	 width="32px" height="27.615px" viewBox="0 0 32 27.615" style="enable-background:new 0 0 32 27.615;" xml:space="preserve">
<g>
	<rect x="5.779" y="26.644" width="20.49" height="0.972"/>
	<polygon points="12.965,25.973 15.733,25.973 16.267,25.973 19.035,25.973 19.423,25.973 22.725,25.973 20.88,23.205 
		19.229,25.682 17.578,23.205 16,25.572 14.422,23.205 12.771,25.682 11.12,23.205 9.275,25.973 12.577,25.973 	"/>
</g>
<g>
	<path d="M13.313,8.03c-0.05-0.087-0.117-0.164-0.176-0.246l-0.093-0.12l-0.047-0.06L12.985,7.59
		C12.991,7.597,13,7.606,13.018,7.627l-0.004-0.006l-0.018-0.023c-0.081-0.11-0.242-0.268-0.259-0.338
		c-0.039-0.081-0.094-0.148-0.131-0.273c-0.088-0.216-0.156-0.462-0.191-0.712c-0.075-0.504-0.065-1.024-0.044-1.48
		c0.06-0.909,0.139-1.573,0.139-1.573s-0.48,0.475-0.866,1.402c-0.193,0.462-0.364,1.04-0.372,1.717
		c0.008,0.335,0.013,0.704,0.152,1.066c0.045,0.176,0.149,0.379,0.258,0.574c0.115,0.216,0.193,0.276,0.294,0.422l0.26,0.313
		c0.048,0.104,0.126,0.188,0.161,0.304c0.084,0.217,0.177,0.447,0.206,0.7c0.083,0.497,0.077,1.017,0.056,1.47
		c-0.06,0.908-0.148,1.571-0.148,1.571s0.485-0.47,0.871-1.4c0.096-0.231,0.19-0.491,0.251-0.781
		c0.062-0.288,0.123-0.604,0.109-0.945c0-0.336-0.041-0.708-0.176-1.069C13.512,8.379,13.399,8.208,13.313,8.03z M12.985,7.59
		C12.987,7.591,12.969,7.57,12.985,7.59L12.985,7.59z"/>
	<path d="M16.171,4.81c-0.05-0.087-0.117-0.164-0.176-0.246l-0.093-0.12l-0.047-0.06l-0.011-0.015
		c0.006,0.007,0.015,0.017,0.033,0.037L15.872,4.4l-0.018-0.023c-0.081-0.11-0.242-0.268-0.259-0.338
		c-0.039-0.081-0.094-0.148-0.131-0.273c-0.088-0.216-0.156-0.462-0.191-0.712c-0.075-0.504-0.065-1.024-0.044-1.48
		C15.289,0.664,15.368,0,15.368,0s-0.48,0.475-0.866,1.402c-0.193,0.462-0.364,1.04-0.372,1.717
		c0.008,0.335,0.013,0.704,0.152,1.066c0.045,0.176,0.149,0.379,0.258,0.574c0.115,0.216,0.193,0.276,0.294,0.422l0.26,0.313
		c0.048,0.104,0.126,0.188,0.161,0.304c0.084,0.217,0.177,0.447,0.206,0.7c0.083,0.497,0.077,1.017,0.056,1.47
		c-0.06,0.908-0.148,1.571-0.148,1.571s0.485-0.47,0.871-1.4c0.096-0.231,0.19-0.491,0.251-0.781
		c0.062-0.288,0.123-0.604,0.109-0.945c0-0.336-0.041-0.708-0.176-1.069C16.371,5.158,16.258,4.987,16.171,4.81z M15.844,4.369
		C15.845,4.37,15.827,4.35,15.844,4.369L15.844,4.369z"/>
	<path d="M19.955,8.263c-0.053-0.185-0.166-0.355-0.252-0.533c-0.05-0.087-0.117-0.164-0.176-0.246l-0.093-0.12l-0.047-0.06
		l-0.011-0.015c0.006,0.007,0.015,0.017,0.033,0.037L19.403,7.32l-0.018-0.023c-0.081-0.11-0.242-0.268-0.259-0.338
		c-0.039-0.081-0.094-0.148-0.131-0.273c-0.088-0.216-0.156-0.462-0.191-0.712c-0.075-0.504-0.065-1.024-0.044-1.48
		c0.06-0.909,0.139-1.573,0.139-1.573s-0.48,0.475-0.866,1.402c-0.193,0.462-0.364,1.04-0.372,1.717
		c0.008,0.335,0.013,0.704,0.152,1.066c0.045,0.176,0.149,0.379,0.258,0.574c0.115,0.216,0.193,0.276,0.294,0.422l0.26,0.313
		c0.048,0.104,0.126,0.188,0.161,0.304c0.084,0.217,0.177,0.447,0.206,0.7c0.083,0.497,0.077,1.017,0.056,1.47
		c-0.06,0.908-0.148,1.571-0.148,1.571s0.485-0.47,0.871-1.4c0.096-0.231,0.19-0.491,0.251-0.781
		c0.062-0.288,0.123-0.604,0.109-0.945C20.13,8.996,20.09,8.624,19.955,8.263z M19.375,7.289C19.376,7.29,19.358,7.27,19.375,7.289
		L19.375,7.289z"/>
</g>
<path d="M29.355,16.113c-0.537,0.189-1.294,1.018-1.468,1.212l-0.013-0.203c-0.045-0.337-0.116-0.626-0.186-0.804h0.299v-0.545
	H4.031v0.545H4.35c-0.085,0.218-0.168,0.606-0.205,1.043c-0.029-0.034-0.899-1.036-1.5-1.248c-0.609-0.215-2.645,0-2.645,0v0.823
	c0,0,2-0.069,2.43,0.181c0.431,0.25,0.896,2.364,1.253,2.364c0.163,0,0.473,0,0.765,0c0.229,0.708,0.517,1.427,0.646,1.74H4.553
	v0.834h0.592h21.73h0.61v-0.834h-0.54c0.131-0.317,0.419-1.036,0.646-1.74c0.279,0,0.569,0,0.726,0c0.356,0,0.822-2.114,1.253-2.364
	C30,16.867,32,16.937,32,16.937v-0.823C32,16.113,29.965,15.898,29.355,16.113z M5.778,18.03c0.021-0.3,0.121-0.568,0.196-0.792
	c0.17-0.446,0.403-0.677,0.403-0.677s-0.038,0.314-0.056,0.753c-0.017,0.436,0.012,1.014,0.089,1.548
	c0.047,0.309,0.111,0.577,0.168,0.826c0.067,0.26,0.129,0.509,0.205,0.717c0.075,0.207,0.124,0.394,0.176,0.516
	c0.045,0.128,0.071,0.2,0.071,0.2s-0.264-0.18-0.548-0.56c-0.131-0.193-0.283-0.426-0.41-0.695
	c-0.121-0.287-0.215-0.599-0.265-0.886c-0.042-0.177-0.031-0.326-0.047-0.487C5.741,18.336,5.769,18.18,5.778,18.03z"/>
<g>
</g>
<g>
</g>
<g>
</g>
<g>
</g>
<g>
</g>
<g>
</g>
<g>
</g>
<g>
</g>
<g>
</g>
<g>
</g>
<g>
</g>
<g>
</g>
<g>
</g>
<g>
</g>
<g>
</g>
</svg>
