<?xml version="1.0" encoding="iso-8859-1"?>
<!-- Generator: Adobe Illustrator 16.0.0, SVG Export Plug-In . SVG Version: 6.00 Build 0)  -->
<!DOCTYPE svg PUBLIC "-//W3C//DTD SVG 1.1//EN" "http://www.w3.org/Graphics/SVG/1.1/DTD/svg11.dtd">
<svg version="1.1" id="Layer_1" xmlns="http://www.w3.org/2000/svg" xmlns:xlink="http://www.w3.org/1999/xlink" x="0px" y="0px"
	 width="32px" height="31.967px" viewBox="0 0 32 31.967" style="enable-background:new 0 0 32 31.967;" xml:space="preserve">
<path d="M14.708,8.677c-0.553,0.552,0.164,2.69,0.183,5.65c0.021,2.96-5.167,6.134-5.63,6.598c-0.523,0.523-8.876,8.876-8.876,8.876
	l0.002,0.001c-0.006,0.008-0.012,0.013-0.019,0.016c-0.49,0.492-0.491,1.29,0,1.778c0.491,0.495,1.29,0.493,1.779,0.003
	c0.008-0.006,0.012-0.015,0.018-0.021c0.013-0.013,8.254-8.252,8.859-8.857c0.526-0.524,3.858-5.761,6.598-5.621
	c2.739,0.142,5.357,0.54,5.704,0.194c0.6-0.601,8.54-8.42,8.54-8.42L32,7.838l-3.799-3.799L27.962,3.8L24.164,0l-1.036,0.137
	C23.127,0.137,15.308,8.075,14.708,8.677z M28.652,8.093l0.9,0.9l-6.003,6.003l-0.9-0.9L28.652,8.093z M26.851,6.292l0.9,0.899
	l-6.002,6.004l-0.901-0.9L26.851,6.292z M24.959,4.4l0.9,0.9l-6.002,6.003l-0.9-0.9L24.959,4.4z M23.159,2.6l0.9,0.899l-6.002,6.004
	l-0.9-0.9L23.159,2.6z"/>
<g>
</g>
<g>
</g>
<g>
</g>
<g>
</g>
<g>
</g>
<g>
</g>
<g>
</g>
<g>
</g>
<g>
</g>
<g>
</g>
<g>
</g>
<g>
</g>
<g>
</g>
<g>
</g>
<g>
</g>
</svg>
