<?xml version="1.0" encoding="iso-8859-1"?>
<!-- Generator: Adobe Illustrator 16.0.0, SVG Export Plug-In . SVG Version: 6.00 Build 0)  -->
<!DOCTYPE svg PUBLIC "-//W3C//DTD SVG 1.1//EN" "http://www.w3.org/Graphics/SVG/1.1/DTD/svg11.dtd">
<svg version="1.1" id="Layer_1" xmlns="http://www.w3.org/2000/svg" xmlns:xlink="http://www.w3.org/1999/xlink" x="0px" y="0px"
	 width="32px" height="31.854px" viewBox="0 0 32 31.854" style="enable-background:new 0 0 32 31.854;" xml:space="preserve">
<path d="M31.586,0.416c-0.555-0.554-1.453-0.554-2.007,0c-0.007,0.007-0.011,0.014-0.019,0.021L29.56,0.435
	c0,0-7.371,7.371-8.054,8.054c-2.796,3.958-4.759,4.501-4.759,4.501l-0.729,0.729l0.4,0.4c-1.282,1.158-3.914,2.443-6.71,3.803
	c-3.357,1.633-6.831,3.322-8.215,4.965c-1.498,1.775-1.605,3.357-1.432,4.371c0.148,0.867,0.563,1.664,1.152,2.254
	c0.221,0.221,0.467,0.414,0.733,0.57l0.376,0.221c0.094,0.119,0.193,0.232,0.3,0.34c0.591,0.59,1.386,1.002,2.254,1.15
	c1.014,0.174,2.595,0.066,4.371-1.43c1.644-1.385,3.331-4.857,4.964-8.217c1.309-2.691,2.549-5.229,3.674-6.561l0.324,0.326
	l0.729-0.729c0,0,0.992-2.648,4.553-4.668c0.59-0.59,8.074-8.073,8.074-8.073l-0.002-0.003c0.006-0.007,0.015-0.011,0.021-0.018
	C32.139,1.868,32.139,0.968,31.586,0.416z M0.625,27.162c-0.153-0.895-0.051-2.299,1.305-3.908c1.307-1.551,4.725-3.213,8.029-4.818
	c0.678-0.33,1.348-0.656,1.993-0.977c-3.843,2.453-8.57,5.5-9.158,6.008c-1.871,1.748-1.599,4.215-1.263,5.547
	C1.072,28.513,0.744,27.857,0.625,27.162z M2.06,28.791c-0.298-1.221-0.509-3.383,1.116-4.9c0.459-0.396,3.764-2.543,7.061-4.656
	c-3.051,2.35-6.08,4.717-6.66,5.297C2.801,25.306,2.215,27.371,2.06,28.791z M3.98,24.933c0.657-0.658,4.73-3.814,8.232-6.498
	c-4.877,4.457-5.697,5.324-6.555,6.232c-0.277,0.295-0.559,0.594-0.989,1.023c-1.133,1.133-1.698,2.275-2.024,3.09
	C2.793,27.572,3.225,25.689,3.98,24.933z M4.488,29.607c0.844-0.176,2.373-0.584,3.116-1.328c0.581-0.58,2.948-3.609,5.298-6.66
	c-2.113,3.295-4.257,6.598-4.649,7.053c-1.522,1.631-3.694,1.418-4.915,1.121C3.84,29.736,4.32,29.642,4.488,29.607z M3.354,29.212
	c0.814-0.326,1.958-0.893,3.091-2.025c0.431-0.43,0.729-0.711,1.022-0.99c0.908-0.857,1.776-1.676,6.233-6.555
	c-2.685,3.504-5.841,7.576-6.499,8.234C6.445,28.632,4.563,29.064,3.354,29.212z M13.7,21.898c-1.606,3.305-3.268,6.723-4.818,8.029
	c-1.609,1.355-3.013,1.457-3.907,1.305c-0.697-0.119-1.353-0.447-1.853-0.906c1.331,0.334,3.802,0.605,5.556-1.271
	c0.502-0.584,3.546-5.309,5.998-9.148C14.355,20.548,14.029,21.218,13.7,21.898z M17.053,15.107
	c-7.811,8.629-8.864,9.625-9.977,10.676c-0.299,0.281-0.6,0.566-1.035,1.002c-0.968,0.967-1.946,1.492-2.695,1.811
	c0.326-0.721,0.84-1.615,1.727-2.502c0.436-0.436,0.72-0.736,1.002-1.033c1.05-1.113,2.047-2.168,10.676-9.977
	c0.168-0.107,0.297-0.188,0.387-0.246l0.053,0.053C17.148,14.955,17.104,15.025,17.053,15.107z M31.064,2.152
	c-0.312,0.312-1.623,1.117-1.934,0.807s0.496-1.621,0.807-1.933c0.311-0.311,0.815-0.311,1.125,0
	C31.375,1.337,31.375,1.841,31.064,2.152z"/>
<g>
</g>
<g>
</g>
<g>
</g>
<g>
</g>
<g>
</g>
<g>
</g>
<g>
</g>
<g>
</g>
<g>
</g>
<g>
</g>
<g>
</g>
<g>
</g>
<g>
</g>
<g>
</g>
<g>
</g>
</svg>
