<?xml version="1.0" encoding="iso-8859-1"?>
<!-- Generator: Adobe Illustrator 16.0.0, SVG Export Plug-In . SVG Version: 6.00 Build 0)  -->
<!DOCTYPE svg PUBLIC "-//W3C//DTD SVG 1.1//EN" "http://www.w3.org/Graphics/SVG/1.1/DTD/svg11.dtd">
<svg version="1.1" id="Layer_1" xmlns="http://www.w3.org/2000/svg" xmlns:xlink="http://www.w3.org/1999/xlink" x="0px" y="0px"
	 width="32px" height="32.001px" viewBox="0 0 32 32.001" style="enable-background:new 0 0 32 32.001;" xml:space="preserve">
<path d="M29.402,0.415c-0.499,0.499-1.438,1.516-2.412,2.586c-1.053-0.978-1.996-1.673-2.231-1.438
	c-0.62,0.62-22.964,22.964-22.964,22.964h0.001c-0.12,0.121-0.202,0.202-0.233,0.233c-0.235,0.235,0.46,1.179,1.438,2.229
	c-1.071,0.975-2.087,1.913-2.587,2.412c-1.319,1.319,0.815,3.53,2.173,2.173c0.515-0.516,1.47-1.532,2.456-2.594
	c1.077,0.955,2.023,1.637,2.185,1.444c0.009-0.011,0.029-0.031,0.054-0.059l0.002,0.002c0,0,5.018-5.033,10.381-10.408
	c4.604-4.594,8.989-8.962,8.989-8.962l-0.016-0.016c2.169-2.167,3.661-3.649,3.787-3.754c0.191-0.163-0.491-1.108-1.444-2.186
	c1.062-0.986,2.077-1.941,2.593-2.456C32.932,1.23,30.722-0.905,29.402,0.415z"/>
<g>
</g>
<g>
</g>
<g>
</g>
<g>
</g>
<g>
</g>
<g>
</g>
<g>
</g>
<g>
</g>
<g>
</g>
<g>
</g>
<g>
</g>
<g>
</g>
<g>
</g>
<g>
</g>
<g>
</g>
</svg>
